<svg width="14" height="11" viewBox="0 0 14 11" fill="none" xmlns="http://www.w3.org/2000/svg">
<path d="M4.38281 10.084C3.86523 10.084 3.48112 9.95215 3.23047 9.68848C2.97982 9.42806 2.8138 9.03906 2.73242 8.52148L1.94141 3.31641L3.01074 3.35059L3.79688 8.43359C3.83268 8.64844 3.90267 8.80306 4.00684 8.89746C4.11426 8.98861 4.26562 9.03418 4.46094 9.03418H9.54395C9.736 9.03418 9.88574 8.98861 9.99316 8.89746C10.1006 8.80306 10.1706 8.64844 10.2031 8.43359L10.9941 3.35059L12.0586 3.31641L11.2676 8.52148C11.1862 9.03906 11.0202 9.42806 10.7695 9.68848C10.5189 9.95215 10.1331 10.084 9.6123 10.084H4.38281ZM2.07324 3.90234C1.72168 3.90234 1.44499 3.79655 1.24316 3.58496C1.04134 3.37012 0.94043 3.08691 0.94043 2.73535V2.04199C0.94043 1.69043 1.04297 1.40885 1.24805 1.19727C1.45638 0.985677 1.73145 0.879883 2.07324 0.879883H11.9268C12.2816 0.879883 12.5583 0.985677 12.7568 1.19727C12.9587 1.40885 13.0596 1.69043 13.0596 2.04199V2.73535C13.0596 3.08691 12.9587 3.37012 12.7568 3.58496C12.5583 3.79655 12.2816 3.90234 11.9268 3.90234H2.07324ZM2.25391 2.93066H11.751C11.8551 2.93066 11.9316 2.90462 11.9805 2.85254C12.0293 2.80046 12.0537 2.72233 12.0537 2.61816V2.15918C12.0537 2.05176 12.0293 1.97363 11.9805 1.9248C11.9316 1.87272 11.8551 1.84668 11.751 1.84668H2.25391C2.14974 1.84668 2.07161 1.87272 2.01953 1.9248C1.9707 1.97363 1.94629 2.05176 1.94629 2.15918V2.61816C1.94629 2.72233 1.9707 2.80046 2.01953 2.85254C2.07161 2.90462 2.14974 2.93066 2.25391 2.93066ZM5.68652 8.19922C5.56283 8.19922 5.45703 8.15527 5.36914 8.06738C5.28451 7.97949 5.24219 7.87533 5.24219 7.75488C5.24219 7.63444 5.28776 7.52865 5.37891 7.4375L6.37012 6.44141L5.37891 5.44531C5.28776 5.35417 5.24219 5.24837 5.24219 5.12793C5.24219 5.00749 5.28451 4.90495 5.36914 4.82031C5.45703 4.73242 5.56283 4.68848 5.68652 4.68848C5.80046 4.68848 5.90299 4.73242 5.99414 4.82031L7 5.82617L8.00586 4.81543C8.10026 4.72428 8.2028 4.67871 8.31348 4.67871C8.43717 4.67871 8.54134 4.72266 8.62598 4.81055C8.71387 4.89844 8.75781 5.00423 8.75781 5.12793C8.75781 5.24512 8.71387 5.34928 8.62598 5.44043L7.625 6.44141L8.62109 7.4375C8.66341 7.47982 8.69596 7.52702 8.71875 7.5791C8.74479 7.62793 8.75781 7.68652 8.75781 7.75488C8.75781 7.87533 8.71387 7.97949 8.62598 8.06738C8.54134 8.15527 8.43717 8.19922 8.31348 8.19922C8.24837 8.19922 8.18978 8.18783 8.1377 8.16504C8.08887 8.139 8.04167 8.10482 7.99609 8.0625L7 7.06152L5.99902 8.0625C5.91113 8.15365 5.80697 8.19922 5.68652 8.19922Z" fill="white"/>
</svg>
