<svg width="3" height="10" viewBox="0 0 3 10" fill="none" xmlns="http://www.w3.org/2000/svg">
<path d="M2.19238 8.90137C2.19238 9.10319 2.14355 9.28711 2.0459 9.45312C1.94499 9.61914 1.81152 9.7526 1.64551 9.85352C1.47949 9.95117 1.2972 10 1.09863 10C0.89681 10 0.712891 9.95117 0.546875 9.85352C0.380859 9.7526 0.249023 9.61914 0.151367 9.45312C0.0504557 9.28711 -3.92008e-08 9.10319 -4.80228e-08 8.90137C-5.67024e-08 8.7028 0.0504557 8.52051 0.151367 8.35449C0.249023 8.18848 0.380859 8.05664 0.546875 7.95898C0.712891 7.85807 0.89681 7.80762 1.09863 7.80762C1.2972 7.80762 1.47949 7.85807 1.64551 7.95898C1.81152 8.05664 1.94499 8.18848 2.0459 8.35449C2.14355 8.52051 2.19238 8.7028 2.19238 8.90137ZM2.19238 5.21484C2.19238 5.41667 2.14355 5.60059 2.0459 5.7666C1.94499 5.93262 1.81152 6.06608 1.64551 6.16699C1.47949 6.26465 1.2972 6.31348 1.09863 6.31348C0.89681 6.31348 0.71289 6.26465 0.546875 6.16699C0.380859 6.06608 0.249023 5.93262 0.151367 5.7666C0.0504555 5.60059 -2.00344e-07 5.41667 -2.09166e-07 5.21484C-2.17846e-07 5.01628 0.0504555 4.83398 0.151367 4.66797C0.249023 4.50195 0.380859 4.37012 0.546875 4.27246C0.71289 4.17155 0.89681 4.12109 1.09863 4.12109C1.2972 4.12109 1.47949 4.17155 1.64551 4.27246C1.81152 4.37012 1.94499 4.50195 2.0459 4.66797C2.14355 4.83398 2.19238 5.01628 2.19238 5.21484ZM2.19238 1.52832C2.19238 1.73014 2.14355 1.91406 2.0459 2.08008C1.94499 2.24609 1.81152 2.37956 1.64551 2.48047C1.47949 2.57812 1.2972 2.62695 1.09863 2.62695C0.89681 2.62695 0.71289 2.57812 0.546875 2.48047C0.380859 2.37956 0.249023 2.24609 0.151367 2.08008C0.0504554 1.91406 -3.61487e-07 1.73014 -3.70309e-07 1.52832C-3.79131e-07 1.3265 0.0504553 1.14421 0.151367 0.981445C0.249023 0.81543 0.380859 0.683594 0.546875 0.585937C0.71289 0.485026 0.896809 0.43457 1.09863 0.43457C1.2972 0.43457 1.47949 0.485026 1.64551 0.585937C1.81152 0.683594 1.94499 0.81543 2.0459 0.981445C2.14355 1.14421 2.19238 1.3265 2.19238 1.52832Z" fill="white"/>
</svg>
