<svg width="12" height="12" viewBox="0 0 12 12" fill="none" xmlns="http://www.w3.org/2000/svg">
<path d="M2.5332 11.333C2.39648 11.2288 2.31348 11.0921 2.28418 10.9229C2.25488 10.7536 2.27767 10.5599 2.35254 10.3418L3.32422 7.45117L0.84375 5.66895C0.654948 5.53548 0.521484 5.39225 0.443359 5.23926C0.365234 5.08301 0.355469 4.92188 0.414062 4.75586C0.469401 4.5931 0.57194 4.47266 0.72168 4.39453C0.874674 4.31315 1.0651 4.27409 1.29297 4.27734L4.33984 4.30176L5.26758 1.3916C5.33919 1.16699 5.43522 0.996094 5.55566 0.878906C5.67936 0.758464 5.82747 0.698242 6 0.698242C6.17253 0.698242 6.31901 0.758464 6.43945 0.878906C6.56315 0.996094 6.66081 1.16699 6.73242 1.3916L7.65527 4.30176L10.7021 4.27734C10.9333 4.27409 11.1237 4.31315 11.2734 4.39453C11.4264 4.47266 11.5306 4.59473 11.5859 4.76074C11.6413 4.92676 11.6299 5.08626 11.5518 5.23926C11.4769 5.39225 11.3451 5.53548 11.1562 5.66895L8.6709 7.45117L9.64746 10.3418C9.72233 10.5599 9.74512 10.7536 9.71582 10.9229C9.68652 11.0921 9.60189 11.2288 9.46191 11.333C9.32194 11.4404 9.16732 11.4795 8.99805 11.4502C8.82878 11.4242 8.64974 11.3428 8.46094 11.2061L6 9.39453L3.53418 11.2061C3.34863 11.3428 3.1696 11.4242 2.99707 11.4502C2.8278 11.4795 2.67318 11.4404 2.5332 11.333Z" fill="white"/>
</svg>
