<svg width="12" height="12" viewBox="0 0 12 12" fill="none" xmlns="http://www.w3.org/2000/svg">
<path d="M2.57715 11.2939C2.45345 11.1995 2.37858 11.0742 2.35254 10.918C2.3265 10.765 2.34766 10.5876 2.41602 10.3857L3.40723 7.44141L0.87793 5.62988C0.702148 5.50293 0.578451 5.37109 0.506836 5.23438C0.438477 5.0944 0.430339 4.94954 0.482422 4.7998C0.53125 4.65332 0.624023 4.54427 0.760742 4.47266C0.897461 4.40104 1.07324 4.36686 1.28809 4.37012L4.39355 4.38965L5.33594 1.42578C5.40104 1.2207 5.48893 1.06445 5.59961 0.957031C5.71029 0.846354 5.84212 0.791016 5.99512 0.791016C6.15137 0.791016 6.28483 0.846354 6.39551 0.957031C6.50618 1.06445 6.59408 1.2207 6.65918 1.42578L7.60156 4.38965L10.7021 4.37012C10.9202 4.36686 11.0977 4.40104 11.2344 4.47266C11.3711 4.54427 11.4639 4.65332 11.5127 4.7998C11.5648 4.94954 11.555 5.0944 11.4834 5.23438C11.415 5.37109 11.293 5.50293 11.1172 5.62988L8.58789 7.44141L9.5791 10.3857C9.64746 10.5876 9.66862 10.765 9.64258 10.918C9.61654 11.0742 9.54167 11.1995 9.41797 11.2939C9.29102 11.3883 9.14941 11.4225 8.99316 11.3965C8.84017 11.3704 8.67741 11.2939 8.50488 11.167L5.99512 9.32617L3.49023 11.167C3.31771 11.2939 3.15332 11.3704 2.99707 11.3965C2.84408 11.4225 2.7041 11.3883 2.57715 11.2939ZM3.55371 9.95605C3.55697 9.96257 3.56836 9.95931 3.58789 9.94629L5.68262 8.32031C5.79655 8.23242 5.90072 8.18848 5.99512 8.18848C6.09277 8.18848 6.19857 8.23242 6.3125 8.32031L8.40723 9.94629C8.42676 9.95931 8.43815 9.96257 8.44141 9.95605C8.44792 9.94954 8.44954 9.93652 8.44629 9.91699L7.55273 7.42188C7.51693 7.33073 7.4974 7.2526 7.49414 7.1875C7.49414 7.11914 7.51204 7.05729 7.54785 7.00195C7.58691 6.94661 7.64876 6.88965 7.7334 6.83105L9.92578 5.3418C9.94531 5.32878 9.95345 5.31738 9.9502 5.30762C9.94694 5.29785 9.93392 5.29297 9.91113 5.29297L7.26465 5.36621C7.11816 5.37272 7.00586 5.35156 6.92773 5.30273C6.85286 5.25065 6.79753 5.15299 6.76172 5.00977L6.01953 2.4707C6.01628 2.44792 6.00814 2.43652 5.99512 2.43652C5.98535 2.43652 5.97884 2.44792 5.97559 2.4707L5.2334 5.00977C5.19759 5.15299 5.14062 5.25065 5.0625 5.30273C4.98763 5.35156 4.87858 5.37272 4.73535 5.36621L2.08887 5.29297C2.06283 5.29297 2.0498 5.29785 2.0498 5.30762C2.04329 5.32064 2.0498 5.33203 2.06934 5.3418L4.26172 6.83105C4.34635 6.88639 4.40658 6.94336 4.44238 7.00195C4.48145 7.05729 4.49935 7.11914 4.49609 7.1875C4.49609 7.2526 4.47819 7.33073 4.44238 7.42188L3.54883 9.91699C3.54557 9.93652 3.5472 9.94954 3.55371 9.95605Z" fill="white"/>
</svg>
