<svg width="19" height="18" viewBox="0 0 19 18" fill="none" xmlns="http://www.w3.org/2000/svg">
<path d="M4.04688 17.1328C3.82812 16.9661 3.69531 16.7474 3.64844 16.4766C3.60156 16.2057 3.63802 15.8958 3.75781 15.5469L5.3125 10.9219L1.34375 8.07031C1.04167 7.85677 0.828125 7.6276 0.703125 7.38281C0.578125 7.13281 0.5625 6.875 0.65625 6.60938C0.744792 6.34896 0.908854 6.15625 1.14844 6.03125C1.39323 5.90104 1.69792 5.83854 2.0625 5.84375L6.9375 5.88281L8.42188 1.22656C8.53646 0.867188 8.6901 0.59375 8.88281 0.40625C9.08073 0.213542 9.31771 0.117188 9.59375 0.117188C9.86979 0.117188 10.1042 0.213542 10.2969 0.40625C10.4948 0.59375 10.651 0.867188 10.7656 1.22656L12.2422 5.88281L17.1172 5.84375C17.487 5.83854 17.7917 5.90104 18.0312 6.03125C18.276 6.15625 18.4427 6.35156 18.5312 6.61719C18.6198 6.88281 18.6016 7.13802 18.4766 7.38281C18.3568 7.6276 18.1458 7.85677 17.8438 8.07031L13.8672 10.9219L15.4297 15.5469C15.5495 15.8958 15.5859 16.2057 15.5391 16.4766C15.4922 16.7474 15.3568 16.9661 15.1328 17.1328C14.9089 17.3047 14.6615 17.3672 14.3906 17.3203C14.1198 17.2786 13.8333 17.1484 13.5312 16.9297L9.59375 14.0312L5.64844 16.9297C5.35156 17.1484 5.0651 17.2786 4.78906 17.3203C4.51823 17.3672 4.27083 17.3047 4.04688 17.1328Z" fill="white"/>
</svg>
