<svg width="19" height="16" viewBox="0 0 19 16" fill="none" xmlns="http://www.w3.org/2000/svg">
<path d="M2.75 15.7344C1.85938 15.7344 1.17708 15.4974 0.703125 15.0234C0.229167 14.5547 -0.0078125 13.8776 -0.0078125 12.9922V3.46875C-0.0078125 2.58854 0.223958 1.91406 0.6875 1.44531C1.15625 0.971354 1.79427 0.734375 2.60156 0.734375H4.78906C5.08594 0.734375 5.33854 0.755208 5.54688 0.796875C5.76042 0.833333 5.95573 0.898438 6.13281 0.992188C6.3099 1.08073 6.5 1.20312 6.70312 1.35938L7.10156 1.67188C7.34635 1.86458 7.57552 2 7.78906 2.07812C8.00781 2.15625 8.26823 2.19531 8.57031 2.19531H15.4297C16.3151 2.19531 16.9948 2.43229 17.4688 2.90625C17.9479 3.38021 18.1875 4.05729 18.1875 4.9375V12.9922C18.1875 13.8776 17.9557 14.5547 17.4922 15.0234C17.0286 15.4974 16.3828 15.7344 15.5547 15.7344H2.75ZM2.96875 13.7188H15.2031C15.5156 13.7188 15.7552 13.6406 15.9219 13.4844C16.0885 13.3281 16.1719 13.0833 16.1719 12.75V5.1875C16.1719 4.85417 16.0885 4.60938 15.9219 4.45312C15.7552 4.29688 15.5156 4.21875 15.2031 4.21875H8.02344C7.72656 4.21875 7.47135 4.20052 7.25781 4.16406C7.04427 4.1224 6.84635 4.05729 6.66406 3.96875C6.48698 3.875 6.29688 3.75 6.09375 3.59375L5.70312 3.27344C5.45312 3.08073 5.22135 2.94531 5.00781 2.86719C4.79948 2.78906 4.54427 2.75 4.24219 2.75H2.99219C2.67969 2.75 2.4375 2.83333 2.26562 3C2.09375 3.16667 2.00781 3.40365 2.00781 3.71094V12.75C2.00781 13.0833 2.08854 13.3281 2.25 13.4844C2.41667 13.6406 2.65625 13.7188 2.96875 13.7188ZM1.28906 7.3125V5.66406H16.9219V7.3125H1.28906Z" fill="white"/>
</svg>
