<svg width="14" height="11" viewBox="0 0 14 11" fill="none" xmlns="http://www.w3.org/2000/svg">
<path d="M6.53125 10.0645C5.67513 10.0645 5.24707 9.76986 5.24707 9.18066C5.24707 8.83887 5.34961 8.48568 5.55469 8.12109C5.75977 7.75326 6.05111 7.41309 6.42871 7.10059C6.80957 6.78809 7.26367 6.53581 7.79102 6.34375C8.32161 6.14844 8.91081 6.05078 9.55859 6.05078C10.2096 6.05078 10.7988 6.14844 11.3262 6.34375C11.8568 6.53581 12.3109 6.78809 12.6885 7.10059C13.0693 7.41309 13.3623 7.75326 13.5674 8.12109C13.7725 8.48568 13.875 8.83887 13.875 9.18066C13.875 9.76986 13.4453 10.0645 12.5859 10.0645H6.53125ZM6.42383 9.13672H12.6934C12.7487 9.13672 12.7861 9.12695 12.8057 9.10742C12.8285 9.09115 12.8398 9.06185 12.8398 9.01953C12.8398 8.84049 12.7666 8.63542 12.6201 8.4043C12.4769 8.17318 12.2653 7.9502 11.9854 7.73535C11.7054 7.51725 11.362 7.33659 10.9551 7.19336C10.5482 7.05013 10.0827 6.97852 9.55859 6.97852C9.03451 6.97852 8.56901 7.05013 8.16211 7.19336C7.75521 7.33659 7.41178 7.51725 7.13184 7.73535C6.85189 7.9502 6.63867 8.17318 6.49219 8.4043C6.34896 8.63542 6.27734 8.84049 6.27734 9.01953C6.27734 9.06185 6.28874 9.09115 6.31152 9.10742C6.33431 9.12695 6.37174 9.13672 6.42383 9.13672ZM9.56348 5.50391C9.16309 5.50391 8.80013 5.39974 8.47461 5.19141C8.14909 4.98307 7.88867 4.70312 7.69336 4.35156C7.5013 3.99674 7.40527 3.60612 7.40527 3.17969C7.40527 2.75651 7.50293 2.3724 7.69824 2.02734C7.89355 1.67904 8.15397 1.40234 8.47949 1.19727C8.80501 0.988932 9.16634 0.884766 9.56348 0.884766C9.96061 0.884766 10.3219 0.987305 10.6475 1.19238C10.973 1.39746 11.2318 1.67253 11.4238 2.01758C11.6191 2.36263 11.7168 2.74674 11.7168 3.16992C11.7168 3.59961 11.6191 3.99186 11.4238 4.34668C11.2318 4.69824 10.973 4.97982 10.6475 5.19141C10.3219 5.39974 9.96061 5.50391 9.56348 5.50391ZM9.56348 4.58105C9.78158 4.58105 9.98014 4.51921 10.1592 4.39551C10.3415 4.26855 10.4863 4.09928 10.5938 3.8877C10.7044 3.67285 10.7598 3.43359 10.7598 3.16992C10.7598 2.91276 10.7061 2.68164 10.5986 2.47656C10.4912 2.27148 10.3464 2.10872 10.1641 1.98828C9.98177 1.86784 9.78158 1.80762 9.56348 1.80762C9.34538 1.80762 9.14518 1.86784 8.96289 1.98828C8.78385 2.10872 8.639 2.27311 8.52832 2.48145C8.41764 2.68978 8.3623 2.9209 8.3623 3.1748C8.3623 3.43848 8.41764 3.67773 8.52832 3.89258C8.639 4.10417 8.78385 4.27181 8.96289 4.39551C9.14518 4.51921 9.34538 4.58105 9.56348 4.58105ZM1.20898 10.0645C0.847656 10.0645 0.575846 9.98633 0.393555 9.83008C0.211263 9.67383 0.120117 9.44271 0.120117 9.13672C0.120117 8.73307 0.217773 8.3457 0.413086 7.97461C0.608398 7.60352 0.876953 7.27311 1.21875 6.9834C1.5638 6.69368 1.96257 6.46582 2.41504 6.2998C2.87077 6.13053 3.35742 6.0459 3.875 6.0459C4.1224 6.0459 4.36979 6.06868 4.61719 6.11426C4.86458 6.15658 5.10547 6.22005 5.33984 6.30469C5.57422 6.38607 5.79395 6.48698 5.99902 6.60742C5.84928 6.70508 5.71745 6.81087 5.60352 6.9248C5.49284 7.03548 5.39681 7.15755 5.31543 7.29102C5.18522 7.2194 5.04036 7.15918 4.88086 7.11035C4.72135 7.05827 4.55534 7.01921 4.38281 6.99316C4.21354 6.96387 4.04427 6.94922 3.875 6.94922C3.49414 6.94922 3.13607 7.00781 2.80078 7.125C2.46549 7.24219 2.16764 7.40007 1.90723 7.59863C1.65007 7.7972 1.44824 8.02181 1.30176 8.27246C1.15853 8.51986 1.08691 8.77539 1.08691 9.03906C1.08691 9.07812 1.09505 9.10742 1.11133 9.12695C1.13086 9.14648 1.16341 9.15625 1.20898 9.15625H4.54883C4.5293 9.32878 4.55859 9.5013 4.63672 9.67383C4.7181 9.84961 4.8304 9.97982 4.97363 10.0645H1.20898ZM3.87988 5.56738C3.53483 5.56738 3.21908 5.47624 2.93262 5.29395C2.64941 5.1084 2.42318 4.861 2.25391 4.55176C2.08464 4.24251 2 3.89909 2 3.52148C2 3.15039 2.08464 2.81348 2.25391 2.51074C2.42643 2.20475 2.6543 1.96061 2.9375 1.77832C3.2207 1.59603 3.53483 1.50488 3.87988 1.50488C4.22493 1.50488 4.53906 1.59603 4.82227 1.77832C5.10872 1.95736 5.33659 2.19987 5.50586 2.50586C5.67513 2.80859 5.75977 3.14388 5.75977 3.51172C5.75977 3.88932 5.67513 4.23438 5.50586 4.54688C5.33659 4.85938 5.10872 5.1084 4.82227 5.29395C4.53906 5.47624 4.22493 5.56738 3.87988 5.56738ZM3.87988 4.6543C4.05566 4.6543 4.2168 4.60384 4.36328 4.50293C4.51302 4.40202 4.63184 4.2653 4.71973 4.09277C4.81087 3.92025 4.85645 3.72656 4.85645 3.51172C4.85645 3.30664 4.81087 3.12272 4.71973 2.95996C4.63184 2.79395 4.51465 2.66211 4.36816 2.56445C4.22168 2.46354 4.05892 2.41309 3.87988 2.41309C3.7041 2.41309 3.54134 2.46354 3.3916 2.56445C3.24512 2.66211 3.12793 2.79557 3.04004 2.96484C2.95215 3.13086 2.9082 3.31641 2.9082 3.52148C2.9082 3.73307 2.95215 3.92513 3.04004 4.09766C3.13118 4.27018 3.25 4.4069 3.39648 4.50781C3.54297 4.60547 3.7041 4.6543 3.87988 4.6543Z" fill="white"/>
</svg>
