<svg width="12" height="11" viewBox="0 0 12 11" fill="none" xmlns="http://www.w3.org/2000/svg">
<path d="M6.78613 6.25586C6.64616 6.39258 6.49154 6.47559 6.32227 6.50488C6.15299 6.53092 5.99023 6.50814 5.83398 6.43652C5.67773 6.36491 5.54427 6.24609 5.43359 6.08008L3.79297 3.66309C3.72135 3.55566 3.7002 3.45801 3.72949 3.37012C3.75879 3.27897 3.81738 3.21875 3.90527 3.18945C3.99642 3.1569 4.09733 3.17643 4.20801 3.24805L6.625 4.89355C6.78776 5.00423 6.90332 5.1377 6.97168 5.29395C7.04329 5.4502 7.06445 5.61296 7.03516 5.78223C7.00911 5.9515 6.92611 6.10938 6.78613 6.25586ZM6 10.5674C5.30339 10.5674 4.64746 10.4339 4.03223 10.167C3.41699 9.90332 2.875 9.53711 2.40625 9.06836C1.9375 8.59961 1.56966 8.05924 1.30273 7.44727C1.03906 6.83203 0.907227 6.17448 0.907227 5.47461C0.907227 4.77799 1.03906 4.1237 1.30273 3.51172C1.56966 2.89648 1.93587 2.35449 2.40137 1.88574C2.87012 1.41699 3.41211 1.05078 4.02734 0.787109C4.64258 0.520182 5.2985 0.386719 5.99512 0.386719C6.69173 0.386719 7.34766 0.520182 7.96289 0.787109C8.58138 1.05078 9.12337 1.41699 9.58887 1.88574C10.0576 2.35449 10.4255 2.89648 10.6924 3.51172C10.9593 4.1237 11.0928 4.77799 11.0928 5.47461C11.0928 6.17448 10.9593 6.83203 10.6924 7.44727C10.4255 8.05924 10.0576 8.59961 9.58887 9.06836C9.12337 9.53711 8.58301 9.90332 7.96777 10.167C7.35254 10.4339 6.69661 10.5674 6 10.5674ZM6 9.44922C6.55013 9.44922 7.06445 9.34668 7.54297 9.1416C8.02474 8.93652 8.44792 8.65332 8.8125 8.29199C9.17708 7.92741 9.46191 7.50586 9.66699 7.02734C9.87207 6.54557 9.97461 6.02799 9.97461 5.47461C9.97461 4.92448 9.87044 4.41016 9.66211 3.93164C9.45703 3.44987 9.1722 3.02669 8.80762 2.66211C8.44629 2.29753 8.02474 2.0127 7.54297 1.80762C7.06445 1.60254 6.5485 1.5 5.99512 1.5C5.44499 1.5 4.92904 1.60254 4.44727 1.80762C3.96875 2.0127 3.5472 2.29753 3.18262 2.66211C2.82129 3.02669 2.53809 3.44987 2.33301 3.93164C2.13118 4.41016 2.03027 4.92448 2.03027 5.47461C2.03027 6.02799 2.13118 6.54557 2.33301 7.02734C2.53809 7.50586 2.82292 7.92741 3.1875 8.29199C3.55208 8.65332 3.97363 8.93652 4.45215 9.1416C4.93392 9.34668 5.44987 9.44922 6 9.44922Z" fill="white"/>
</svg>
